<svg width="103" height="24" viewBox="0 0 103 24" fill="none" xmlns="http://www.w3.org/2000/svg">
<path d="M14.4102 18H10.8945V10.6875H4.03906V18H0.523438V0.9375H4.03906V7.85156H10.8945V0.9375H14.4102V18ZM22.0039 13.207L24.3477 5.32031H27.9805L22.8828 19.9688L22.6016 20.6367C21.8438 22.293 20.5938 23.1211 18.8516 23.1211C18.3594 23.1211 17.8594 23.0469 17.3516 22.8984V20.332L17.8672 20.3438C18.5078 20.3438 18.9844 20.2461 19.2969 20.0508C19.6172 19.8555 19.8672 19.5312 20.0469 19.0781L20.4453 18.0352L16.0039 5.32031H19.6484L22.0039 13.207ZM33.3711 2.20312V5.32031H35.5391V7.80469H33.3711V14.1328C33.3711 14.6016 33.4609 14.9375 33.6406 15.1406C33.8203 15.3438 34.1641 15.4453 34.6719 15.4453C35.0469 15.4453 35.3789 15.418 35.668 15.3633V17.9297C35.0039 18.1328 34.3203 18.2344 33.6172 18.2344C31.2422 18.2344 30.0312 17.0352 29.9844 14.6367V7.80469H28.1328V5.32031H29.9844V2.20312H33.3711ZM41.4805 2.20312V5.32031H43.6484V7.80469H41.4805V14.1328C41.4805 14.6016 41.5703 14.9375 41.75 15.1406C41.9297 15.3438 42.2734 15.4453 42.7812 15.4453C43.1562 15.4453 43.4883 15.418 43.7773 15.3633V17.9297C43.1133 18.1328 42.4297 18.2344 41.7266 18.2344C39.3516 18.2344 38.1406 17.0352 38.0938 14.6367V7.80469H36.2422V5.32031H38.0938V2.20312H41.4805ZM51.3711 18.2344C49.5117 18.2344 47.9961 17.6641 46.8242 16.5234C45.6602 15.3828 45.0781 13.8633 45.0781 11.9648V11.6367C45.0781 10.3633 45.3242 9.22656 45.8164 8.22656C46.3086 7.21875 47.0039 6.44531 47.9023 5.90625C48.8086 5.35938 49.8398 5.08594 50.9961 5.08594C52.7305 5.08594 54.0938 5.63281 55.0859 6.72656C56.0859 7.82031 56.5859 9.37109 56.5859 11.3789V12.7617H48.5117C48.6211 13.5898 48.9492 14.2539 49.4961 14.7539C50.0508 15.2539 50.75 15.5039 51.5938 15.5039C52.8984 15.5039 53.918 15.0312 54.6523 14.0859L56.3164 15.9492C55.8086 16.668 55.1211 17.2305 54.2539 17.6367C53.3867 18.0352 52.4258 18.2344 51.3711 18.2344ZM50.9844 7.82812C50.3125 7.82812 49.7656 8.05469 49.3438 8.50781C48.9297 8.96094 48.6641 9.60938 48.5469 10.4531H53.2578V10.1836C53.2422 9.43359 53.0391 8.85547 52.6484 8.44922C52.2578 8.03516 51.7031 7.82812 50.9844 7.82812ZM72.6172 18H69.1016L62.2578 6.77344V18H58.7422V0.9375H62.2578L69.1133 12.1875V0.9375H72.6172V18ZM81.3008 18.2344C79.4414 18.2344 77.9258 17.6641 76.7539 16.5234C75.5898 15.3828 75.0078 13.8633 75.0078 11.9648V11.6367C75.0078 10.3633 75.2539 9.22656 75.7461 8.22656C76.2383 7.21875 76.9336 6.44531 77.832 5.90625C78.7383 5.35938 79.7695 5.08594 80.9258 5.08594C82.6602 5.08594 84.0234 5.63281 85.0156 6.72656C86.0156 7.82031 86.5156 9.37109 86.5156 11.3789V12.7617H78.4414C78.5508 13.5898 78.8789 14.2539 79.4258 14.7539C79.9805 15.2539 80.6797 15.5039 81.5234 15.5039C82.8281 15.5039 83.8477 15.0312 84.582 14.0859L86.2461 15.9492C85.7383 16.668 85.0508 17.2305 84.1836 17.6367C83.3164 18.0352 82.3555 18.2344 81.3008 18.2344ZM80.9141 7.82812C80.2422 7.82812 79.6953 8.05469 79.2734 8.50781C78.8594 8.96094 78.5938 9.60938 78.4766 10.4531H83.1875V10.1836C83.1719 9.43359 82.9688 8.85547 82.5781 8.44922C82.1875 8.03516 81.6328 7.82812 80.9141 7.82812ZM92.5039 2.20312V5.32031H94.6719V7.80469H92.5039V14.1328C92.5039 14.6016 92.5938 14.9375 92.7734 15.1406C92.9531 15.3438 93.2969 15.4453 93.8047 15.4453C94.1797 15.4453 94.5117 15.418 94.8008 15.3633V17.9297C94.1367 18.1328 93.4531 18.2344 92.75 18.2344C90.375 18.2344 89.1641 17.0352 89.1172 14.6367V7.80469H87.2656V5.32031H89.1172V2.20312H92.5039ZM100.613 2.20312V5.32031H102.781V7.80469H100.613V14.1328C100.613 14.6016 100.703 14.9375 100.883 15.1406C101.062 15.3438 101.406 15.4453 101.914 15.4453C102.289 15.4453 102.621 15.418 102.91 15.3633V17.9297C102.246 18.1328 101.562 18.2344 100.859 18.2344C98.4844 18.2344 97.2734 17.0352 97.2266 14.6367V7.80469H95.375V5.32031H97.2266V2.20312H100.613Z" fill="#1D3557"/>
</svg>
